<?xml version="1.0" encoding="UTF-8"?>
<svg id="b" data-name="Layer 2" xmlns="http://www.w3.org/2000/svg" viewBox="0 0 142 142">
  <g id="c" data-name="Layer 1">
    <path d="M71,0C31.85,0,0,31.85,0,71s31.85,71,71,71,71-31.85,71-71S110.15,0,71,0ZM11,71c0-33.08,26.92-60,60-60s59.47,26.41,59.98,59.07c-.27-.04-.55-.1-.82-.17-.03,0-.07,0-.1-.01.86.28-.61-.05-.84-.09-.5-.07-.99-.21-1.46-.4-6.12-1.27-12.16-2.73-17.83-5.99.6-.3.97-.43,1.29-.65,2.1-1.42,4.35-2.68,6.23-4.36,1.46-1.31,1.08-2.95-.54-4.11-1.81-1.3-3.84-1.95-6.1-1.85-2.72.12-5,1.34-7.17,2.84-.67.46-1.34.92-2.32,1.59.22-.74.31-1.1.44-1.45.98-2.7.59-5.17-1.4-7.26-1.08-1.14-2.31-2.13-3.51-3.14-3.07-2.58-5.07-5.73-5.37-9.81-.02-.31-.16-.62-.32-1.23-2.14,2.26-2.73,4.75-2.49,7.48.24,2.77,1.54,5.06,3.51,7.08-2.2-1.2-4.43-2.1-6.84-1.4-1.83.54-3.04-.19-4.21-1.32-1.84-1.78-2.74-4.05-3.27-6.49-.2-.92-.42-1.84-.72-3.13-1.31,1.69-1.7,3.23-1.84,4.85-.32,3.94.99,7.24,4.16,9.93-1.64,1.3-3.15,2.46-4.62,3.66-3.2,2.64-6.18,5.42-8.12,9.23-1.04,2.06-2.48,4.01-4.11,5.66-1.85,1.88-4.21,3.24-6.16,5.04-2.47,2.28-5.23,4.05-8.41,5.06-2.89.91-4.09,2.85-4.23,5.69-.05.98-.11,1.97-.07,2.95.09,2.05.89,3.77,2.37,5.24.84.83,1.67,1.78,2.14,2.84,1.07,2.41,2.78,3.82,5.42,3.86,1.81.03,3.64-.06,5.44-.29,3.2-.41,6.22-.04,9.23,1.21,4.25,1.77,8.69,2.78,13.34,2.93,1.56.05,3.22.54,4.63,1.24,3.95,1.94,10,10.65,11.08,15.54.44,1.03.62,2.19.43,3.4,0,.01,0,.03,0,.05.76-.25,1.51-.52,2.25-.81-8.62,4.79-18.53,7.53-29.07,7.53-33.08,0-60-26.92-60-60Z" fill="#cc2121"/>
  </g>
</svg>