<?xml version="1.0" encoding="UTF-8"?>
<svg id="b" data-name="Layer 2" xmlns="http://www.w3.org/2000/svg" viewBox="0 0 360.42 218.26">
  <g id="c" data-name="Layer 1">
    <g>
      <path d="M240.1,218.26c-7.89-6.66-11.13-14.29-12.63-24.47-1.92-12.99,1.75-16,2.81-27,.44-4.55-.76-7.98-.72-11.9.06-6.37,3.82-17.07,6.04-23.27.98-2.74,5.05-13.77,6.4-15.33,1.56-1.81,3.82-1.87,5.56-.37,3.96,3.43-4.66,13.32-4.09,17.59,24.11-12.08,29.41-45.05,56.36-53.03,11.91-3.53,22.99-1.13,34.11,3.65,3.07,1.32,16.3,9.55,17.3,9.57,4.51.1,10.78-7.67,8.81-12.48-2.06-5.03-10.55-12.91-12.34-18.39-1.14-3.51-.64-7.35-2.23-11.27-1.22-3.02-3.69-4.98-4.99-7.75-2.44-5.22-.8-7.49-6.58-11.41-5.1-3.46-12.97-3.55-14.73-10.78-1.24-5.14,2.86-11.53,5.93-15.53,1.59-2.08,4.31-3.61,5.17-6.07-6.8,1.06-14.02,7.05-16.67,13.3-2.85,6.73-.75,14.58-10.34,15.89-10.72,1.46-32.2-.85-42.98-3.3-5.78-1.32-11.03-3.72-17.04-4.68-28.43-4.52-48.5,9.43-75.4,11.79-43.89,3.84-88.75-.71-132.49-2.99-11.16-.58-21.55.86-27.93,11-5.7,9.07-3.1,14.94-3.88,24.61-1.07,13.31-2.9,24.53-2.27,38.29.41,8.97,3.11,19.95,3.08,28.46-.03,9.36-8.37,19.08-1.93,28.13,6.31-9.1,4.19-18.82,4.88-28.86.34-5,2.89-11.81,3.03-15.78.12-3.5-3.1-12.63-3.69-17.32-1.7-13.63.28-31.28,4.03-44.53.81-2.86,2.9-11.44,6.62-11.09l3.37,2.62c-.96,6.84-3.63,13.36-4.89,20.33-4.79,26.44-.76,33.64,5.39,57.88,3.94,15.55,1.91,20.22.45,34.96-1.34,13.52,5.98,30.38,2.4,45.16-.88,3.64-4.23,7-3.23,11.39h20.21c-11.21-9.29-13.4-25.43-10.15-39.05.97-4.07,4.09-7.02,5.8-10.69,3.51-7.51,3-15.76,10.39-21.09,11.23-8.1,24.49-11.83,26.7-28.74.53-4.06-3.02-14.72,4.14-12.82,5.16,1.36,3.4,15.45,2.04,19.38,6.33.98,12.81,3.16,18.69,5.65,7.57,3.22,14.05,8.24,21.46,11.49,26.38,11.57,58.04,6.63,84.52-2.11.99-1.45-1.05-9.12-1.19-11.63-.57-9.94,1.02-20.66,5.89-29.41,1.73-3.1,9.6-14.83,13.67-9.7,2.77,3.49-3.92,8.29-5.92,11.45-14.95,23.61,1.16,45.85,2.85,69.63.35,4.98.37,12.26,0,17.23s-3.66,14.41-2.97,17.99c.58,2.98,10.43,9.43,8.97,15.4h14.22ZM302.23,44.26c2.26,3.35,7.59,5.61,11.52,5.21,2.97-.3,6.96-3.8,8.9,1.01,2.8,6.94-12.37,6.79-16.67,5.39-5.02-1.63-17.44-11.9-14.62-17.62,2.49-3.24,6.56-1.02,10.43-1.57,3.6-.51,6.29-3.64,9.97-4.25,3.01-.5,6.16-.02,9.18-.18l-2.34,7.44c-6.33-1.58-10.38,4.17-16.37,4.57Z" fill="#fff"/>
      <path d="M70.94,164.25c4.15-1.32,2.16-6.06,6.35-9,5.84-4.1,13.28-2.98,17.94,2.29,1.32,1.49.35,3.69,3.39,2.96-.03-3.93-2.07-6.49-1.18-10.54,1.01-4.56,5.79-6.36,6.84-10.47-1.25-2.59-25.33-11.2-27.37-10.15-4.41,6.76-10.13,11.67-16.45,16.54,8.68,4.43,12.16,8.06,10.47,18.37Z" fill="#fff"/>
      <path d="M69.48,212.99l13.43-1.86c-9.5-6.42-15.21-18.84-16.37-30.09-.34-3.32.43-7.39-.12-10.38-.37-1.98-2.52-3.55-2.91-6.08-.43-2.75.33-5.71-.17-8.46l-10.35-6.12c.85,6.14,2.16,12.31,2.89,18.47,1.02,8.64.75,21.73,3.45,29.54,1.7,4.89,9.55,8.25,10.16,14.98Z" fill="#fff"/>
      <path d="M255.82,207.76c-6.74-7.94-12.2-17.6-13.39-28.2-1.43-12.74,3.97-25.71,2.91-38.55l-5.99,2.8c-.52,3.42-2.18,7.75-2.26,11.12-.09,3.85,1.04,7.37.68,11.86-1.06,13.13-5.44,15.99-1.78,31.23.81,3.36,2.19,7.15,4.5,9.74h15.35Z" fill="#fff"/>
      <path d="M339.65,11.25c.11-1.48-2.26-.58-3.02-.4-4.82,1.12-13.63,5.58-8.57,10.9,3.19-4.12,6.92-8.04,11.6-10.5Z" fill="#fff"/>
    </g>
  </g>
</svg>