<?xml version="1.0" encoding="UTF-8"?>
<svg id="b" data-name="Layer 2" xmlns="http://www.w3.org/2000/svg" viewBox="0 0 376.52 236.83">
  <g id="c" data-name="Layer 1">
    <g>
      <path d="M271.08,226.14c1.63-.35,3.77-3.48,4-5.05.54-3.77-9.68-12.94-12.02-16.89-10.69-18.07-.47-38.04-1.76-57.4,27.87-20.13,32.17-63.4,76.66-45.05,5.49,2.27,16.28,10.58,20.86,10.61,8.61.06,17.48-10.03,17.7-18.34.21-8.12-10.29-16.06-12.98-23.04-1.19-3.08-1.22-7.52-2.47-11.01-1.5-4.18-4.71-9.54-6.74-14.24-2.25-5.22-5.19-8.08-10.11-10.86,3.45-3.86,7.57-6.95,11.75-9.97,3.33-2.4,13.61-5.94,9.59-11.34-3.01-4.04-10.3-1.86-14.61-1.54,1.67-3.1,6.4-3.18,6.56-7.24.3-7.78-16.39-4.07-20.81-2.86-14.26,3.88-24.11,13.98-25.84,28.86-1.61,2.29-22.3-.59-26.27-.04-27.07-5.82-44.16-11.35-72.25-4.73-18.85,4.45-29.24,9.13-49.98,10.01-32.59,1.37-69.43.34-102.02-1.54-16.74-.96-31.16-6.87-46.07,4.94S3.32,64.01,2.98,80.58c-.23,11.43-2.13,22.39-1.56,34.43.48,10.2,3.05,20.41,2.31,30.69-.87,12.04-8.19,20.99.41,32.47,2,2.67,4.94,5.95,8.57,4.18l7.49-15.34c-.16,14.2,4.33,27.95,3.04,42.32-.4,4.48-2.98,7.26-3.58,11.39-.84,5.72.11,12.12,6.91,12.92,5.38.64,19.35.6,24.77-.02,3.69-.42,7-2.34,7.18-6.38.21-4.79-5.59-7.78-8.28-11.23-4.84-6.19-5.79-13.2-5.26-20.93.64-9.41,5.98-13.43,8.25-22.09l1.4,6.45c1.13,9.2,1.1,30.76,6.85,37.33,1.78,2.04,4.21,2.8,5.87,5.37,2.55,3.93,2.14,9.31,8.74,9.3,4.39,0,15.66-1.51,20.16-2.41,3.25-.65,6.26-1.19,6.91-5.1.82-4.97-8.06-8.97-11.33-12-7.93-7.33-10.44-18.97-10.14-29.46,1.65-1.19,3.08-1.38,4.54-3.11,2.25-2.68,1.68-7.2,4.89-7.85,6.25-1.25,5.01,6.01,10.63,7.31,11.02,2.54,14.58-7.79,10.83-16.53l6.37-7.14c30.24,14.61,64.49,10.18,95.51.63,3.22,12.62,5.5,25.4,4.5,38.54-.66,8.64-6.21,17.91-.32,25.78,1.41,1.89,3.74,2.82,4.74,4.26,1.93,2.78,2.62,10.37,5.52,11.71,2.09.97,22.41.93,25.52.37,5.27-.94,5.83-6.1,3.55-10.3h13.12ZM245.2,227.63h-11.25c-.62-2.28-1.25-4.91-2.37-6.99-2.73-5.05-7.48-4.12-6.57-11.29,1.47-11.56,3.83-18.87,2.93-31.49-1.64-22.85-17.74-46.77-3.01-68.89,2.3-3.46,8.34-7.23,6.39-11.56-3.74-8.3-13.45,5.53-15.5,9.21-7.17,12.92-6.7,26.72-4.38,40.91-24.93,6.68-51.9,12.13-77.25,4.14-10.68-3.37-19.65-10.76-30-14.97-5.13-2.08-11.05-3.78-16.49-4.89,2.34-4.55,2.87-23.03-5.98-19.07-4.06,1.82-1.22,8.74-1.6,12.64-.76,7.81-7.1,15.89-13.06,20.65-5.02,4.01-12.91,6.39-16.84,10.89-4.2,4.81-4.52,12.54-7.14,18.32-1.68,3.71-5.05,7.03-6.05,11.18-3.09,12.88-1.09,28.67,8.67,38.22h-17.25c-.77-4.02,2.41-7.21,3.24-10.62,3.63-14.94-3.99-32.28-2.29-45.71,1.74-13.81,3.16-18.71-.25-33.07-5.89-24.82-10.66-31.68-5.71-58.95.78-4.29,5.24-17.09,5-19.62-.37-3.92-4.79-5.27-7.5-2.33-4.09,4.43-7.56,25.65-8.23,32.2-.98,9.7-.58,17.85.98,27.45.52,3.24,2.78,9.02,2.78,11.46,0,3.24-3.05,7.37-3.03,10.85-1.03-.44-1.24-3.82-1.4-4.95-2.49-18.31-.65-32.26-.06-50.03.4-12.04-4.19-21.27,4.84-31.85,6.91-8.09,15.44-8.74,25.5-8.22,43.65,2.26,88.19,6.64,132,2.98,27.15-2.27,48.04-16.31,76.29-11.75,6.05.98,11.28,3.34,17.09,4.65,10.67,2.42,32.45,4.74,43.07,3.29,9.25-1.26,8.06-7.9,10.36-14.36s7.2-11.35,13.7-14.02l-8.01,12.97c-4.51,12.61,4.79,13.16,12.65,17.59,7.07,3.99,4.96,4.86,7.6,11.13,1.45,3.45,4.49,6.27,5.74,9.99s.74,6.93,1.86,10.12c1.62,4.62,12.89,16.53,12.78,20.08-.1,3.22-5.03,9.56-8.49,9.27-1.58-.13-12.14-7.29-15.23-8.7-13.61-6.24-29.13-8.9-43.05-2.01-21.3,10.55-27.71,38.04-48.35,49.8-.47-4.28,9.16-15.74,1.34-17.85-5.46-1.48-9.17,11.1-10.72,15.22-2.44,6.48-6.73,18.83-6.8,25.47-.04,3.92,1.16,7.34.72,11.88-1.07,11.07-4.8,13.6-2.82,26.95,1.35,9.08,4.43,17.27,11.16,23.67ZM343.45,22.54c-1.97,2.06-4.88,6.01-7.12,7.48-1.02.67-1.84.6-1.86-.37-.04-2.59,5.98-7.51,8.98-7.11ZM68.96,155.04c6.51-3.2,11.17-9.24,15.44-14.87,9.27,1.98,18.16,5.32,26.55,9.63-5.72,6.99-9.65,10.52-6.01,20.2-1.8-.87-1.97-3.08-3.33-4.53-4.94-5.27-17-3.59-20.57,2.75-.91,1.61-.47,4-2.34,4.77.59-6.06.71-9.91-4.56-13.8-1.06-.78-6.33-2.51-5.2-4.15ZM22.45,146.42c.41,4.09,0,9.23,0,13.47,0,.22-.8,4.16-1.49,4.11.98-7.33-.14-14.34,0-21.7.71-.03,1.46,3.75,1.49,4.11ZM261.7,217.15h-14.25c-2.77-6.83-5.86-16.92-5.26-24.32.37-4.59,3.35-10.23,3.75-15.74.48-6.66-1.33-11.58.36-18.35.95-3.8.98-4.96,5.27-5.97,2.16-.03-2.46,24.58-2.6,26.59-.99,13.98,3.37,27.42,12.74,37.79ZM11.21,154.27c1.41-.06,1.54-.35,1.52,1.14-.04,3.62-1.07,10.4-3.77,13.09-.57-4.93,1.84-9.42,2.25-14.23ZM88.45,220.89l-11.29,1.16c-1.29-2.16-1.85-4.23-3.4-6.32-4.06-5.47-6.14-2.98-7.72-11.76-2.44-13.56-2.01-27.86-4.58-41.45l8.61,5.19c-.18,2.57-.74,5.26-.32,7.87s2.57,3.37,2.94,5.3c.55,2.9-.22,7.09.11,10.37.74,7.44,4.29,15.62,7.83,22.13l7.82,7.53Z"/>
      <path d="M311.95,54.73c3.94-.26,6.81-3.48,10.65-4.04,4.35-.63,9.5,2.57,9.49-5.16-3.18-5-9.57-4.45-14.55-2.83-2.5.81-5.44,3.16-7.63,3.61-3.6.74-11.42-2.07-12.22,2.83-1.03,6.37,10.09,16.12,15.76,17.92,5.16,1.63,21.29,1.28,17.45-6.92-2.3-4.89-8.46-.53-12.38-1.08-1.13-.16-8.01-2.79-6.58-4.34Z"/>
    </g>
  </g>
</svg>