<?xml version="1.0" encoding="UTF-8"?>
<svg id="b" data-name="Layer 2" xmlns="http://www.w3.org/2000/svg" viewBox="0 0 525.58 100.92">
  <g id="c" data-name="Layer 1">
    <text transform="translate(124.1 72.92)" fill="#cc2121" font-family="Kuunari-Black, Kuunari" font-size="68.27" font-weight="800"><tspan x="0" y="0">Kütükçü</tspan></text>
    <text transform="translate(349.1 72.92)" fill="#cc2121" font-family="Kuunari-Black, Kuunari" font-size="68.27" font-weight="800"><tspan x="0" y="0">Kurban</tspan></text>
    <path d="M50.46,0C22.64,0,0,22.64,0,50.46s22.64,50.46,50.46,50.46,50.46-22.64,50.46-50.46S78.28,0,50.46,0ZM7.82,50.46C7.82,26.95,26.95,7.82,50.46,7.82s42.27,18.77,42.63,41.98c-.19-.03-.39-.07-.58-.12-.02,0-.05,0-.07-.01.61.2-.44-.04-.6-.06-.36-.05-.7-.15-1.04-.28-4.35-.9-8.64-1.94-12.67-4.26.43-.21.69-.31.92-.46,1.49-1.01,3.09-1.9,4.43-3.1,1.04-.93.77-2.09-.39-2.92-1.29-.92-2.73-1.39-4.33-1.32-1.93.08-3.55.95-5.1,2.02-.48.33-.96.65-1.65,1.13.16-.53.22-.78.31-1.03.69-1.92.42-3.67-.99-5.16-.77-.81-1.64-1.51-2.5-2.23-2.18-1.83-3.6-4.07-3.82-6.97-.02-.22-.11-.44-.23-.88-1.52,1.61-1.94,3.37-1.77,5.31.17,1.97,1.09,3.6,2.5,5.03-1.56-.85-3.15-1.5-4.86-.99-1.3.38-2.16-.14-2.99-.94-1.31-1.26-1.94-2.88-2.32-4.62-.14-.65-.3-1.31-.51-2.22-.93,1.2-1.21,2.3-1.3,3.45-.23,2.8.7,5.15,2.96,7.06-1.17.92-2.24,1.74-3.28,2.6-2.28,1.87-4.39,3.85-5.77,6.56-.74,1.46-1.76,2.85-2.92,4.02-1.32,1.33-3,2.3-4.38,3.58-1.76,1.62-3.72,2.88-5.97,3.59-2.05.65-2.91,2.03-3,4.05-.03.7-.08,1.4-.05,2.1.06,1.46.64,2.68,1.69,3.72.59.59,1.19,1.27,1.52,2.02.76,1.72,1.98,2.71,3.85,2.75,1.29.02,2.59-.04,3.87-.2,2.27-.29,4.42-.03,6.56.86,3.02,1.26,6.17,1.97,9.48,2.08,1.11.04,2.29.39,3.29.88,2.8,1.38,7.11,7.57,7.88,11.04.31.73.44,1.55.3,2.41,0,0,0,.02,0,.03.54-.18,1.07-.37,1.6-.57-6.12,3.41-13.17,5.35-20.66,5.35-23.51,0-42.64-19.13-42.64-42.64Z" fill="#cc2121"/>
  </g>
</svg>