<?xml version="1.0" encoding="UTF-8"?>
<svg id="b" data-name="Layer 2" xmlns="http://www.w3.org/2000/svg" viewBox="0 0 83.68 92.67">
  <g id="c" data-name="Layer 1">
    <path d="M83.68,44.72c0-1.78,0-3.57,0-5.35,0-.04,0-.08,0-.12h0c0-3.86-.02-7.72-.05-11.57-.04-5.62-2.53-9.89-7.44-12.61-6.72-3.42-13.48-6.79-20.2-10.21h0c-12.15-6.4-16.06-6.55-28.23,0v-.02c-6.23,3.15-12.46,6.3-18.7,9.43C3.44,16.74,0,21.44.05,27.67,0,33.4,0,39.13,0,44.86c0,6.71,0,13.43.05,20.14-.06,6.23,3.39,10.93,9.01,13.41,6.24,3.13,12.46,6.28,18.69,9.43v-.02c12.18,6.54,16.08,6.39,28.24,0h0c6.72-3.42,13.48-6.79,20.2-10.21,4.92-2.72,7.4-6.99,7.44-12.61.05-6.76.05-13.51.05-20.27ZM46.89,83.44c-3.27,1.63-7.11,1.63-10.37-.03l-22.87-11.63v-.02c-5.42-2.34-5.89-4.96-5.7-10.49.03-4.92.02-9.9.01-14.9,0-5.03.01-10.04-.01-14.98-.19-5.53.28-8.15,5.71-10.49v-.02s26.51-13.48,26.51-13.48c.91-.46,1.99-.47,2.91,0,4.56,2.31,18.75,9.49,26.34,13.22,5.8,2.57,6.48,4.64,6.27,10.78-.02,4.55-.02,9.11-.02,13.66-3.19-.73-6.33-1.65-9.3-3.36.38-.19.62-.27.82-.41,1.33-.9,2.76-1.7,3.95-2.76.93-.83.69-1.87-.34-2.61-1.15-.82-2.44-1.24-3.86-1.17-1.73.07-3.17.85-4.54,1.8-.42.29-.85.58-1.47,1.01.14-.47.2-.7.28-.92.62-1.71.37-3.28-.89-4.6-.68-.72-1.47-1.35-2.23-1.99-1.95-1.63-3.21-3.63-3.4-6.22-.01-.2-.1-.39-.21-.78-1.35,1.43-1.73,3.01-1.58,4.74.15,1.75.97,3.21,2.23,4.48-1.4-.76-2.81-1.33-4.33-.89-1.16.34-1.93-.12-2.67-.84-1.17-1.13-1.73-2.56-2.07-4.12-.13-.58-.27-1.16-.46-1.98-.83,1.07-1.08,2.05-1.16,3.07-.2,2.49.63,4.59,2.64,6.3-1.04.82-2,1.56-2.93,2.32-2.03,1.67-3.92,3.43-5.15,5.85-.66,1.31-1.57,2.54-2.6,3.59-1.17,1.19-2.67,2.05-3.9,3.19-1.57,1.45-3.32,2.57-5.33,3.21-1.83.58-2.59,1.81-2.68,3.61-.03.62-.07,1.25-.05,1.87.06,1.3.57,2.39,1.5,3.32.53.53,1.06,1.13,1.36,1.8.68,1.53,1.76,2.42,3.43,2.45,1.15.02,2.31-.04,3.45-.18,2.03-.26,3.94-.03,5.85.77,2.69,1.12,5.51,1.76,8.45,1.86.99.03,2.04.34,2.94.79,2.39,1.18,5.99,6.26,6.91,9.41-3.81,1.94-7.63,3.9-11.42,5.8Z" fill="#166a4e"/>
  </g>
</svg>