<?xml version="1.0" encoding="UTF-8"?>
<svg id="b" data-name="Layer 2" xmlns="http://www.w3.org/2000/svg" viewBox="0 0 528.63 91.03">
  <g id="c" data-name="Layer 1">
    <text transform="translate(112.79 67.18)" fill="#cc2121" font-family="Kuunari-Black, Kuunari" font-size="63.9" font-weight="800"><tspan x="0" y="0">KÜTÜKÇÜ</tspan></text>
    <text transform="translate(340.76 66.54)" fill="#cc2121" font-family="Kuunari-Black, Kuunari" font-size="63.9" font-weight="800"><tspan x="0" y="0">KURBAN</tspan></text>
    <path d="M45.51,0C20.42,0,0,20.42,0,45.51s20.42,45.51,45.51,45.51,45.51-20.42,45.51-45.51S70.61,0,45.51,0ZM7.05,45.51C7.05,24.3,24.3,7.05,45.51,7.05s38.12,16.93,38.45,37.86c-.17-.03-.35-.06-.53-.11-.02,0-.04,0-.07,0,.55.18-.39-.03-.54-.05-.32-.05-.64-.13-.94-.25-3.92-.82-7.79-1.75-11.43-3.84.38-.19.62-.28.83-.42,1.35-.91,2.79-1.72,3.99-2.79.94-.84.7-1.89-.35-2.64-1.16-.83-2.46-1.25-3.91-1.19-1.75.08-3.21.86-4.6,1.82-.43.3-.86.59-1.49,1.02.14-.48.2-.71.28-.93.63-1.73.38-3.31-.9-4.65-.69-.73-1.48-1.37-2.25-2.01-1.97-1.65-3.25-3.67-3.44-6.29-.01-.2-.1-.4-.21-.79-1.37,1.45-1.75,3.04-1.6,4.79.16,1.77.99,3.24,2.25,4.54-1.41-.77-2.84-1.35-4.38-.9-1.17.34-1.95-.12-2.7-.85-1.18-1.14-1.75-2.59-2.09-4.16-.13-.59-.27-1.18-.46-2.01-.84,1.08-1.09,2.07-1.18,3.11-.21,2.52.63,4.64,2.67,6.37-1.05.83-2.02,1.57-2.96,2.35-2.05,1.69-3.96,3.47-5.2,5.92-.67,1.32-1.59,2.57-2.63,3.63-1.19,1.2-2.7,2.08-3.95,3.23-1.59,1.46-3.35,2.6-5.39,3.24-1.85.59-2.62,1.83-2.71,3.65-.03.63-.07,1.26-.05,1.89.06,1.32.57,2.42,1.52,3.36.54.53,1.07,1.14,1.37,1.82.69,1.55,1.78,2.45,3.47,2.48,1.16.02,2.33-.04,3.49-.18,2.05-.26,3.98-.03,5.91.78,2.72,1.13,5.57,1.78,8.55,1.88,1,.03,2.06.35,2.97.79,2.53,1.25,6.41,6.83,7.1,9.96.28.66.39,1.4.27,2.18,0,0,0,.02,0,.03.49-.16.97-.34,1.44-.52-5.52,3.07-11.88,4.83-18.63,4.83-21.21,0-38.46-17.25-38.46-38.46Z" fill="#cc2121"/>
  </g>
</svg>