<?xml version="1.0" encoding="UTF-8"?>
<svg id="b" data-name="Layer 2" xmlns="http://www.w3.org/2000/svg" viewBox="0 0 593.48 110.25">
  <g id="c" data-name="Layer 1">
    <text transform="translate(138.76 78.27)" fill="#cc2121" font-family="Kuunari-Black, Kuunari" font-size="68.27" font-weight="800"><tspan x="0" y="0">KÜTÜKÇÜ</tspan></text>
    <text transform="translate(392.76 77.59)" fill="#cc2121" font-family="Kuunari-Black, Kuunari" font-size="68.27" font-weight="800"><tspan x="0" y="0">KURBAN</tspan></text>
    <path d="M55.13,0C24.73,0,0,24.73,0,55.13s24.73,55.13,55.13,55.13,55.13-24.73,55.13-55.13S85.52,0,55.13,0ZM8.54,55.13c0-25.69,20.9-46.59,46.59-46.59s46.18,20.51,46.57,45.86c-.21-.03-.42-.08-.64-.13-.03,0-.05,0-.08-.01.67.21-.48-.04-.65-.07-.39-.06-.77-.16-1.13-.31-4.75-.99-9.44-2.12-13.84-4.65.47-.23.75-.34,1-.5,1.63-1.1,3.38-2.08,4.84-3.38,1.14-1.02.84-2.29-.42-3.19-1.41-1.01-2.98-1.51-4.73-1.44-2.11.09-3.88,1.04-5.57,2.21-.52.36-1.04.71-1.8,1.23.17-.58.24-.86.34-1.13.76-2.1.46-4.01-1.08-5.63-.84-.88-1.79-1.65-2.73-2.44-2.38-2-3.93-4.45-4.17-7.62-.02-.24-.12-.48-.25-.96-1.66,1.76-2.12,3.68-1.93,5.81.19,2.15,1.19,3.93,2.73,5.49-1.71-.93-3.44-1.63-5.31-1.08-1.42.42-2.36-.15-3.27-1.03-1.43-1.38-2.12-3.14-2.54-5.04-.16-.72-.33-1.43-.56-2.43-1.02,1.31-1.32,2.51-1.42,3.76-.25,3.06.77,5.62,3.23,7.71-1.27,1.01-2.45,1.91-3.59,2.84-2.49,2.05-4.8,4.2-6.3,7.17-.81,1.6-1.93,3.12-3.19,4.39-1.44,1.46-3.27,2.52-4.78,3.91-1.92,1.77-4.06,3.15-6.53,3.93-2.24.71-3.18,2.22-3.28,4.42-.04.76-.09,1.53-.06,2.29.07,1.59.69,2.93,1.84,4.07.65.65,1.3,1.38,1.66,2.2.83,1.87,2.16,2.96,4.21,3,1.41.02,2.83-.05,4.22-.22,2.48-.31,4.83-.03,7.16.94,3.3,1.37,6.75,2.16,10.35,2.28,1.21.04,2.5.42,3.6.96,3.06,1.51,7.77,8.27,8.6,12.06.34.8.48,1.7.33,2.64,0,0,0,.02,0,.04.59-.19,1.17-.41,1.75-.63-6.69,3.72-14.38,5.85-22.57,5.85-25.69,0-46.59-20.9-46.59-46.59Z" fill="#cc2121"/>
  </g>
</svg>