<?xml version="1.0" encoding="UTF-8"?>
<svg id="b" data-name="Layer 2" xmlns="http://www.w3.org/2000/svg" viewBox="0 0 262.34 218.53">
  <g id="c" data-name="Layer 1">
    <g>
      <path d="M8.98,158.11c-1.72-1.72,8.08-18.6,9.26-21.61.33-.84,1.13-2.25,1.09-3.06-.05-.98-4.13-4.49-5.07-6.29-.93-1.77-1.3-5.01-2.14-6.16s-3.93-2.9-5.22-4.64c-2.36-3.2-3.03-7.51-2.6-11.42.17-1.57,1.96-5.33,1.93-5.71-.04-.52-2.38-2.36-2.95-3.12-4.18-5.57-4.47-13.25-.23-18.88,1.04-1.38,4.91-4.23,5.15-4.71.6-1.23.18-4.67.59-6.67.68-3.35,3.53-6.85,6.24-8.81,1.47-1.07,5.57-2.47,5.92-2.9.56-.68,1.3-3.7,2.43-5.35,1.77-2.6,5.12-5.47,8.19-6.34,2.37-.67,6.18-.16,7.5-.81.45-.22,2.99-3.74,4.14-4.68,3.56-2.9,7.63-3.87,12.2-3.37,1.57.17,5.33,1.96,5.71,1.93.34-.03,3.85-3.68,5.27-4.43,5.49-2.9,12.15-2.18,17.02,1.48.76.57,2.6,2.91,3.12,2.95.4.03,3.89-1.7,5.24-1.89,6.46-.86,11.29,1.32,15.51,6.04,4.41-2.22,8.91-2.6,13.59-.98,1.15.4,4.73,2.65,5.01,2.6.63-.1,3.88-2.42,5.43-2.89,3.39-1.02,6.62-.95,9.96.13,1.17.38,4.95,2.82,5.37,2.76.78-.12,4.07-2.87,6.56-3.32,1.88-.34,5,.12,6.26-.49.5-.25,3.29-4.1,4.71-5.15,1.71-1.27,5.56-2.37,6.21-3.13.79-.92,1.4-3.86,2.65-5.65,2.05-2.92,6.07-5.9,9.63-6.45,1.62-.25,4.81.24,5.84-.39.44-.27.94-1.5,1.54-2.09,6.74-6.52,11.82-13.22,22.07-14.25,3.87-.39,19.44-.63,22.72.1,5.05,1.14,5.58,10.01.76,11.95-4.31,1.74-8.29.22-13.33,3.8-10.03,7.12-6.76,18.81-7.88,29.48-.34,3.24-1.03,6.57-1.65,9.76-.36,1.86-2.33,7.35-2.21,8.47.08.7,1.55,2.07,1.94,3.01,1.99,4.69,2.25,9.92-.19,14.53-.75,1.43-4.4,4.93-4.43,5.27-.03.4,1.7,3.89,1.89,5.24.5,3.73-.18,8.45-2.32,11.6-.94,1.38-5.7,5.14-5.85,5.57-.44,1.28.02,4.02-.32,5.91-.7,3.93-4.42,8.37-7.9,10.26-1.23.67-3.25.89-4.09,1.62-.95.81-1.59,4.3-2.83,6-5.2,7.16-14.12,8.15-21.79,4.41l-2.6,10.64v10.12h-17.64c-.03-1.16.23-5.64-.59-6.15-.55-.35-5.29.04-6.81-.2-2.7-.42-6.09-3.29-6.96-3.43-.74-.11-2.49,1.67-3.45,2.09-4.65,2.01-9.95,2.23-14.53-.19-1.43-.75-4.93-4.4-5.27-4.43-.38-.03-4.15,1.76-5.71,1.93-5.4.6-7.18-1.68-10.47-1.96-.92-.08-4.05,1.7-5.66,1.91-3.61.48-8.18-.14-11.29-2.12-1.06-.67-3.71-3.88-4.23-3.92-.4-.03-3.89,1.7-5.24,1.89-5.58.75-9.68-.7-13.96-4.12-4.76,7.37-11.38,13.22-18.17,18.69H8.98Z" fill="#fff"/>
      <path d="M223.98,22.34c4.67-4.67,10.95-2.29,16.09-5.84l17.67,19.19c3.86,5.19,5.05,10.91,4.45,17.33-.12,1.31-.28,4.14-1.89,3.47-2.64-1.1-6.35-5.88-9.3-3.76-4.88,3.5,5.65,7.64,7.55,9.64-9.07,10.55-17.51.04-26.71-2.86-1.9-.6-4.33-1.25-6.3-1.49-1.6-.2-6.55.39-7.23-.57,1.01-5.55,1.99-11.22,2.36-16.88.42-6.27-1.64-13.29,3.3-18.23ZM231.4,27.46c-4.32.39-3.86,10.54.36,10.16,4.32-.39,3.86-10.54-.36-10.16Z" fill="#fff"/>
      <path d="M24.58,32.01c2.33-.55,5.53-.88,7.9-.39.34.07,4.38,1.78,4.51,1.98,1.53,2.32-6.61,3.06-8.42,3.73-3.48,1.29-7.19,4.24-9.42,7.18-1.11,1.46-1.9,3.83-2.89,4.9-2.04,2.21-6.32,3.63-9.34,7.26-2.31,2.78-2.45,7.07-5.4,1.74-1.47-2.65-1.84-6.47-1.24-9.42.31-1.52,2.5-4.03,2.46-5.31-.03-.82-2.14-3.47-2.45-5.31-2.78-16.44,19.37-21.45,24.29-6.37Z" fill="#fff"/>
      <g>
        <polygon points="29.22 164.34 29.22 199.62 15.72 199.62 9.5 164.34 29.22 164.34" fill="#fff"/>
        <path d="M56.2,164.34c-2.13,2.66-5.24,5.18-8.3,6.75v28.54h-12.45v-35.28h20.76Z" fill="#fff"/>
        <path d="M30.77,205.85l3.63,12.45h-15.83c-.54,0-1.82-1.28-1.82-1.82v-10.64h14.01Z" fill="#fff"/>
        <path d="M41.67,158.11l10.11-10.77c2.6,1.21,6.57,2.39,9.41,2.41,1.83.02,6.1-1.49,7.47-.73.95.53.08.84-.22,1.35-1.61,2.79-3.86,5.15-5.76,7.74h-21.02Z" fill="#fff"/>
        <path d="M49.45,205.85c4.09,10.9,4.38,13.98-8.84,12.22l-4.13-12.22h12.97Z" fill="#fff"/>
        <g>
          <polygon points="162.05 164.34 162.05 199.62 149.08 199.62 145.45 164.34 162.05 164.34" fill="#fff"/>
          <rect x="168.28" y="164.34" width="12.45" height="35.28" fill="#fff"/>
          <path d="M163.61,205.85l3.63,12.45h-15.83c-.54,0-1.82-1.28-1.82-1.82v-10.64h14.01Z" fill="#fff"/>
          <path d="M180.73,158.11h-12.45v-12.97c4.32.44,8.31.67,12.45-1.04v14.01Z" fill="#fff"/>
          <path d="M182.29,205.85c4.09,10.9,4.38,13.98-8.84,12.22l-4.13-12.22h12.97Z" fill="#fff"/>
        </g>
      </g>
    </g>
  </g>
</svg>