<?xml version="1.0" encoding="UTF-8"?>
<svg id="b" data-name="Layer 2" xmlns="http://www.w3.org/2000/svg" viewBox="0 0 69.89 69.89">
  <g id="c" data-name="Layer 1">
    <path d="M18.36,57.64l2.53,1.48c4.23,2.47,9.04,3.78,14.06,3.78,15.44,0,27.96-12.52,27.96-27.96S50.39,6.99,34.95,6.99,6.99,19.51,6.99,34.95c0,5.02,1.32,9.83,3.79,14.06l1.48,2.53-2.28,8.39,8.39-2.29ZM.01,69.89l4.72-17.36C1.73,47.37,0,41.36,0,34.95,0,15.65,15.65,0,34.95,0s34.95,15.65,34.95,34.95-15.65,34.95-34.95,34.95c-6.41,0-12.41-1.72-17.58-4.74L.01,69.89ZM22.34,18.55c.47-.03.94-.04,1.41-.02.19.01.38.03.57.06.56.06,1.17.4,1.37.87,1.04,2.36,2.05,4.74,3.03,7.13.22.53.09,1.21-.33,1.87-.21.34-.54.82-.92,1.3-.4.51-1.25,1.44-1.25,1.44,0,0-.34.41-.21.93.05.19.21.48.36.72.08.13.16.25.21.33.89,1.49,2.1,3.01,3.57,4.43.42.41.83.82,1.27,1.21,1.64,1.44,3.49,2.62,5.49,3.5h.02c.3.14.45.2.88.39.22.09.44.17.67.23.08.02.17.03.25.04.57.03.89-.33,1.03-.5,2.53-3.06,2.76-3.26,2.78-3.26h0c.33-.34.85-.47,1.32-.44.21.01.42.05.62.14,1.86.85,4.9,2.17,4.9,2.17l2.03.91c.34.16.65.55.67.93,0,.23.03.61-.05,1.3-.11.9-.38,1.99-.66,2.56-.19.4-.44.76-.73,1.06-.39.41-.68.65-1.16,1.01-.29.21-.44.31-.44.31-.49.31-.76.46-1.34.77-.9.48-1.89.75-2.91.81-.65.03-1.3.08-1.94.05-.03,0-1.99-.3-1.99-.3-4.97-1.31-9.56-3.76-13.42-7.15-.79-.69-1.52-1.45-2.27-2.19-3.11-3.09-5.46-6.43-6.89-9.58-.7-1.56-1.15-3.22-1.16-4.94-.01-2.12.68-4.19,1.97-5.87.25-.33.5-.68.91-1.07.44-.42.72-.64,1.03-.8.4-.21.85-.32,1.3-.35Z" fill="#fff"/>
  </g>
</svg>